<svg xmlns="http://www.w3.org/2000/svg" xmlns:xlink="http://www.w3.org/1999/xlink" width="740" height="310" x="0" y="0" version="1.1" viewBox="30 0 740 310" xml:space="preserve"><style type="text/css">text{fill:#000;stroke:none;font-family:Frutiger,Myriad,Arial,Helvetica,sans-serif;text-anchor:middle;font-weight:400}#endArrow{fill:#313695;stroke:none;stroke-width:1px;stroke-linejoin:round}.connector text{font-size:18px}.connector path{fill:none;stroke:#313695;stroke-width:3px;marker-end:url(#endArrow)}</style><defs><g id="person"><path d="M52.65,125.2h19.9c3.3,0,6-2.7,6-6V86.301h3.399c3.301,0,6-2.701,6-6V43.2c0-3.3-2.699-6-6-6H43.25c-3.3,0-6,2.7-6,6 v37.101c0,3.299,2.7,6,6,6h3.4V119.2C46.65,122.5,49.25,125.2,52.65,125.2z"/><circle cx="62.55" cy="15.7" r="15.7"/></g><marker id="endArrow" class="process" markerHeight="20" markerUnits="strokeWidth" markerWidth="10" orient="auto" refX="-4" refY="0" viewBox="-30 -15 40 60"><path d="M-12,0 L-19,-9.5 L0,0 L-19,9.5 Z"/></marker><g id="headerEllipse" class="header"><ellipse cx="280" cy="35" fill="#0ff" stroke="#000" stroke-width="1" rx="50" ry="20"/></g><rect id="firstRect" width="100" height="50" x="0" y="0" stroke="#000" stroke-width="1"/></defs><g id="create"><use transform="translate(120,0)" xlink:href="#headerEllipse"/><text x="400" y="40">Create</text><g transform="translate(10, 60)"><use fill="#0c0" xlink:href="#person"/><text x="63" y="140">Subject</text></g><g transform="translate(70, 160)"><use fill="#0c0" xlink:href="#person"/><text x="63" y="140">Controller</text></g><g class="connector"><path d="M180,220 340,220"/><text x="260" y="210">Create</text></g><use fill="#ccf" transform="translate(350,200)" xlink:href="#firstRect"/><text x="398" y="230">DID</text><g class="connector"><path d="M460,220 640,220"/><text x="550" y="210">Register DID</text></g><use fill="#ccf" transform="translate(650,200)" xlink:href="#firstRect"/><text x="700" y="230">Registry</text></g></svg>