<svg xmlns="http://www.w3.org/2000/svg" xmlns:xlink="http://www.w3.org/1999/xlink" width="640" height="220" x="0" y="0" version="1.1" viewBox="0 0 640 220" xml:space="preserve"><style type="text/css">text{fill:#000;stroke:none;font-family:Frutiger,Myriad,Arial,Helvetica,sans-serif;text-anchor:middle;font-weight:400}#endArrow,#redArrow{fill:#313695;stroke:none;stroke-width:1px;stroke-linejoin:round}#redArrow{fill:red}.connector text{font-size:18px}.connector text.left{text-anchor:start}.connector path{fill:none;stroke:#313695;stroke-width:3px;marker-end:url(#endArrow)}.red path{stroke:red;marker-end:url(#redArrow)}</style><defs><g id="person"><path d="M52.65,125.2h19.9c3.3,0,6-2.7,6-6V86.301h3.399c3.301,0,6-2.701,6-6V43.2c0-3.3-2.699-6-6-6H43.25c-3.3,0-6,2.7-6,6 v37.101c0,3.299,2.7,6,6,6h3.4V119.2C46.65,122.5,49.25,125.2,52.65,125.2z"/><circle cx="62.55" cy="15.7" r="15.7"/></g><marker id="endArrow" class="process" markerHeight="20" markerUnits="strokeWidth" markerWidth="10" orient="auto" refX="-4" refY="0" viewBox="-30 -15 40 60"><path d="M-12,0 L-19,-9.5 L0,0 L-19,9.5 Z"/></marker><marker id="redArrow" class="process" markerHeight="20" markerUnits="strokeWidth" markerWidth="10" orient="auto" refX="-4" refY="0" viewBox="-30 -15 40 60"><path d="M-12,0 L-19,-9.5 L0,0 L-19,9.5 Z"/></marker><g id="headerEllipse" class="header"><ellipse cx="280" cy="35" fill="#0ff" stroke="#000" stroke-width="1" rx="50" ry="20"/></g><rect id="firstRect" width="100" height="50" x="0" y="0" stroke="#000" stroke-width="1"/></defs><g id="update"><use transform="translate(30, 0)" xlink:href="#headerEllipse"/><text x="310" y="40">Deactivate</text><g transform="translate(10, 60)"><use fill="#0c0" xlink:href="#person"/><text x="63" y="140">Controller</text></g><g class="connector"><path d="M110,110 250,110"/><text x="120" y="100" class="left">Deactivate DID</text></g><use fill="#fcc" transform="translate(260,90)" xlink:href="#firstRect"/><text x="310" y="120">Registry</text><g transform="translate(500, 60)"><use fill="#0c0" xlink:href="#person"/><text x="63" y="140">Requesting party</text></g><g class="connector"><path d="M510,110 370,110"/><text x="390" y="100" class="left">Resolve DID</text></g><g class="connector red"><path d="M370,150 510,150"/><text x="390" y="140" class="left">&apos;Inactive&apos;</text></g></g></svg>