<svg xmlns="http://www.w3.org/2000/svg" xmlns:xlink="http://www.w3.org/1999/xlink" width="670" height="300" x="0" y="0" version="1.1" viewBox="100 0 670 300" xml:space="preserve"><style type="text/css">text{fill:#000;stroke:none;font-family:Frutiger,Myriad,Arial,Helvetica,sans-serif;text-anchor:middle;font-weight:400}#endArrow{fill:#313695;stroke:none;stroke-width:1px;stroke-linejoin:round}.connector text{font-size:18px;text-anchor:start}.connector path,.cross path{fill:none;stroke:#313695;stroke-width:3px;marker-end:url(#endArrow)}.cross path{stroke:red;marker-end:none}</style><defs><g id="person"><path d="M52.65,125.2h19.9c3.3,0,6-2.7,6-6V86.301h3.399c3.301,0,6-2.701,6-6V43.2c0-3.3-2.699-6-6-6H43.25c-3.3,0-6,2.7-6,6 v37.101c0,3.299,2.7,6,6,6h3.4V119.2C46.65,122.5,49.25,125.2,52.65,125.2z"/><circle cx="62.55" cy="15.7" r="15.7"/></g><marker id="endArrow" class="process" markerHeight="20" markerUnits="strokeWidth" markerWidth="10" orient="auto" refX="-4" refY="0" viewBox="-30 -15 40 60"><path d="M-12,0 L-19,-9.5 L0,0 L-19,9.5 Z"/></marker><g id="headerEllipse" class="header"><ellipse cx="280" cy="35" fill="#0ff" stroke="#000" stroke-width="1" rx="50" ry="20"/></g><rect id="firstRect" width="100" height="50" x="0" y="0" stroke="#000" stroke-width="1"/><rect id="secondRect" width="200" height="50" x="0" y="0" stroke="#000" stroke-width="1"/></defs><g id="present"><use transform="translate(130, 0)" xlink:href="#headerEllipse"/><text x="410" y="40">Read</text><use fill="#ccf" transform="translate(230,80)" xlink:href="#firstRect"/><text x="280" y="110">Registry</text><g class="connector"><path d="M520,100 340,100"/><text x="380" y="90">Resolve DID</text><path d="M340,140 520,140"/><text x="380" y="130">DID Doc</text><path d="M520,180 280,180 280, 150"/><text x="380" y="170">Audit</text></g><g transform="translate(500, 60)"><use fill="#0c0" xlink:href="#person"/><text x="63" y="140">Requesting Party</text></g><use fill="#ccf" transform="translate(130,240)" xlink:href="#secondRect"/><text x="230" y="270">Service endpoint</text><g class="connector"><path d="M400,260 340,260"/><path d="M400,260 560,260 560, 210"/><text x="380" y="250">Dereference DID</text></g><g transform="translate(630, 150)"><use fill="#0c0" xlink:href="#person"/><text x="63" y="140">Identity provider</text></g><g class="cross"><path d="M422,440 562,300" transform="translate(200, -150)"/><path d="M422,300 562,440" transform="translate(200, -150)"/></g></g></svg>