<svg xmlns="http://www.w3.org/2000/svg" xmlns:xlink="http://www.w3.org/1999/xlink" width="1250" height="900" x="0" y="0" version="1.1" viewBox="90 30 1250 900" xml:space="preserve"><style type="text/css">text{fill:#000;stroke:none;font-family:Frutiger,Myriad,Arial,Helvetica,sans-serif;text-anchor:middle;font-weight:400;font-size:20px}#endArrow{fill:#313695;stroke:none;stroke-width:1px;stroke-linejoin:round}.connector text{font-size:18px}.connector path{fill:none;stroke:#313695;marker-end:url(#endArrow)}.connector path,a:hover{stroke-width:3px}</style><defs><marker id="endArrow" class="process" markerHeight="20" markerUnits="strokeWidth" markerWidth="10" orient="auto" refX="-4" refY="0" viewBox="-30 -15 40 60"><path d="M-12,0 L-19,-9.5 L0,0 L-19,9.5 Z"/></marker><rect id="firstRect" width="270" height="50" x="0" y="0" stroke="#000"/><rect id="secondRect" width="230" height="50" x="0" y="0" stroke="#000"/></defs><g id="centre"><use fill="#ccc" transform="translate(650,450)" xlink:href="#secondRect"/><text x="770" y="480">Use cases</text></g><g class="connector"><path d="M645,475 595,475"/></g><g class="connector"><path d="M885,475 935,475"/></g><g class="connector"><path d="M720,445 620,355"/></g><g class="connector"><path d="M830,445 920,355"/></g><g class="connector"><path d="M720,505 620,595"/></g><g class="connector"><path d="M830,505 920,595"/></g><g transform="translate(200,0)"><g id="learnersWorkers"><use fill="#FFC8C8" transform="translate(300,300)" xlink:href="#secondRect"/><text x="420" y="330">Learners &amp; workers</text></g><g id="dm_edu"><a target="_top" xlink:href="../#edu"><use fill="#FFC8C8" transform="translate(100,200)" xlink:href="#secondRect"/><text x="220" y="230">6.2 Lifelong credentials</text></a></g><g id="dm_ghostWriter"><a target="_top" xlink:href="../#ghostWriter"><use fill="#FFC8C8" transform="translate(180,140)" xlink:href="#secondRect"/><text x="295" y="170">2.7 Pseudonymous work</text></a></g><g id="dm_vcEcosystem"><a target="_top" xlink:href="../#vcEcosystem"><use fill="#FFC8C8" transform="translate(260,80)" xlink:href="#secondRect"/><text x="380" y="110">2.5 Transferable skills</text></a></g><g class="connector"><path d="M365,295 315,255"/></g><g class="connector"><path d="M365,295 365,195"/></g><g class="connector"><path d="M365,295 465,135"/></g></g><g transform="translate(200,0)"><g id="lawLegal"><use fill="#FFFFD0" transform="translate(600,300)" xlink:href="#secondRect"/><text x="720" y="330">Law &amp; legal</text></g><g id="dm_digitalPRC"><a target="_top" xlink:href="../#digitalPRC"><use fill="#FFFFD0" transform="translate(800,200)" xlink:href="#secondRect"/><text x="915" y="230">2.9 Permanent residence</text></a></g><g id="dm_law"><a target="_top" xlink:href="../#law"><use fill="#FFFFD0" transform="translate(720,140)" xlink:href="#secondRect"/><text x="840" y="170">6.4 Digital executor</text></a></g><g id="dm_publicAuthorityCredentials"><a target="_top" xlink:href="../#publicAuthorityCredentials"><use fill="#FFFFD0" transform="translate(640,80)" xlink:href="#firstRect"/><text x="770" y="110">2.11 Public Authority creds</text></a></g><g class="connector"><path d="M765,295 805,255"/></g><g class="connector"><path d="M765,295 765,195"/></g><g class="connector"><path d="M765,295 675,135"/></g></g><g transform="translate(200,50)"><g id="corporate"><use fill="#FFE6E4" transform="translate(160,400)" xlink:href="#secondRect"/><text x="280" y="430">Corporate</text></g><g id="dm_accessingServiceEndpoints"><a target="_top" xlink:href="../#accessingServiceEndpoints"><use fill="#FFE6E4" transform="translate(-100,400)" xlink:href="#secondRect"/><text x="20" y="430">2.4 Accessing data</text></a></g><g id="dm_didEnterprise"><a target="_top" xlink:href="../#didEnterprise"><use fill="#FFE6E4" transform="translate(0,300)" xlink:href="#secondRect"/><text x="120" y="330">6.1 Enterprise identifiers</text></a></g><g id="dm_edv"><a target="_top" xlink:href="../#edv"><use fill="#FFE6E4" transform="translate(0,500)" xlink:href="#secondRect"/><text x="115" y="530">2.3 Confidential engage</text></a></g><g class="connector"><path d="M220,395 175,355"/></g><g class="connector"><path d="M220,455 175,495"/></g><g class="connector"><path d="M155,430 135,430"/></g></g><g transform="translate(200,0)"><g id="retailConsumer"><use fill="#FFC8F0" transform="translate(300,600)" xlink:href="#secondRect"/><text x="420" y="630">Retail &amp; consumer</text></g><g id="dm_correlation"><a target="_top" xlink:href="../#correlation"><use fill="#FFC8F0" transform="translate(50,640)" xlink:href="#secondRect"/><text x="165" y="670">2.12 Correlation control</text></a></g><g id="dm_onlineShopper"><a target="_top" xlink:href="../#onlineShopper"><use fill="#FFC8F0" transform="translate(100,700)" xlink:href="#secondRect"/><text x="220" y="730">2.1 Online shopper</text></a></g><g id="dm_prescriptions"><a target="_top" xlink:href="../#prescriptions"><use fill="#FFC8F0" transform="translate(180,760)" xlink:href="#secondRect"/><text x="300" y="790">6.3 Prescriptions</text></a></g><g id="dm_aliceRents"><a target="_top" xlink:href="../#aliceRents"><use fill="#FFC8F0" transform="translate(260,820)" xlink:href="#secondRect"/><text x="380" y="850">6.5 Alice rents a car</text></a></g><g class="connector"><path d="M360,655 315,695"/></g><g class="connector"><path d="M360,655 360,755"/></g><g class="connector"><path d="M360,655 465,815"/></g><g class="connector"><path d="M295,625 235,575"/></g><g class="connector"><path d="M295,625 280,635"/></g></g><g transform="translate(200,0)"><g id="supplyChain"><use fill="#C8C8FF" transform="translate(600,600)" xlink:href="#secondRect"/><text x="720" y="630">Supply chain</text></g><g id="dm_retroToys"><a target="_top" xlink:href="../#retroToys"><use fill="#C8C8FF" transform="translate(800,700)" xlink:href="#secondRect"/><text x="920" y="730">2.10 Import retro toys</text></a></g><g id="dm_vehicleAssemblies"><a target="_top" xlink:href="../#vehicleAssemblies"><use fill="#C8C8FF" transform="translate(720,760)" xlink:href="#secondRect"/><text x="840" y="790">2.2 Vehicle assemblies</text></a></g><g id="dm_supplyChain"><a target="_top" xlink:href="../#supplyChain"><use fill="#C8C8FF" transform="translate(640,820)" xlink:href="#secondRect"/><text x="755" y="850">2.8 Pseudomymous dist.</text></a></g><g class="connector"><path d="M770,655 810,695"/></g><g class="connector"><path d="M770,655 770,755"/></g><g class="connector"><path d="M770,655 670,815"/></g></g><g transform="translate(200,50)"><g id="authentication"><use fill="#C8FAC8" transform="translate(740,400)" xlink:href="#secondRect"/><text x="860" y="430">Auth’n &amp; authorization</text></g><g id="dm_sso"><a target="_top" xlink:href="../#sso"><use fill="#C8FAC8" transform="translate(900,300)" xlink:href="#secondRect"/><text x="1020" y="330">6.6 Secure Comms</text></a></g><g id="dm_crossPlatform"><a target="_top" xlink:href="../#crossPlatform"><use fill="#C8FAC8" transform="translate(900,500)" xlink:href="#secondRect"/><text x="1010" y="530">2.6 X-platform sharing</text></a></g><g class="connector"><path d="M900,395 940,355"/></g><g class="connector"><path d="M900,455 940,495"/></g></g></svg>